<svg width="62" height="62" viewBox="0 0 62 62" fill="none" xmlns="http://www.w3.org/2000/svg">
<path d="M20.8333 36.1667L10.5 36.1667C9.12971 36.1667 7.81555 35.6223 6.84661 34.6534C5.87767 33.6844 4.33333 32.3703 4.33333 31C4.33333 29.6297 5.87768 28.3156 6.84661 27.3466C7.81555 26.3777 9.12971 25.8333 10.5 25.8333L20.8333 25.8333L31.1667 7.75L38.9167 7.75L33.75 25.8333L44.0833 25.8333L49.25 20.6667L57 20.6667L51.8333 31L57 41.3333L49.25 41.3333L44.0833 36.1667L33.75 36.1667L38.9167 54.25L31.1667 54.25L20.8333 36.1667Z" fill="#fff"/>
</svg>
